inDegrees=no
num_controls=7
num_derivatives=13
num_iterations=163
num_multipliers=7
num_parameters=0
num_slacks=7
num_states=26
objective=5.071761
objective_accelerations=0.334316
objective_balance=0.032315
objective_effort=0.165876
objective_height=4.452178
objective_ligament=0.087076
solver_duration=1811.727266
status=Solve_Succeeded
success=true
DataType=double
version=3
OpenSimVersion=4.4-2022-07-23-0e9fedc
endheader
time	/jointset/ground_pelvis/pelvis_tilt/value	/jointset/ground_pelvis/pelvis_tx/value	/jointset/ground_pelvis/pelvis_ty/value	/jointset/hip_l/hip_flexion_l/value	/jointset/hip_l/hip_adduction_l/value	/jointset/hip_l/hip_rotation_l/value	/jointset/back/lumbar_extension/value	/jointset/patellofemoral_l/patellar_flexion_l/value	/jointset/knee_l/knee_flexion_l/value	/jointset/knee_l/knee_adduction_l/value	/jointset/knee_l/knee_rotation_l/value	/jointset/ankle_l/ankle_angle_l/value	/jointset/subtalar_l/subtalar_angle_l/value	/jointset/ground_pelvis/pelvis_tilt/speed	/jointset/ground_pelvis/pelvis_tx/speed	/jointset/ground_pelvis/pelvis_ty/speed	/jointset/hip_l/hip_flexion_l/speed	/jointset/hip_l/hip_adduction_l/speed	/jointset/hip_l/hip_rotation_l/speed	/jointset/back/lumbar_extension/speed	/jointset/patellofemoral_l/patellar_flexion_l/speed	/jointset/knee_l/knee_flexion_l/speed	/jointset/knee_l/knee_adduction_l/speed	/jointset/knee_l/knee_rotation_l/speed	/jointset/ankle_l/ankle_angle_l/speed	/jointset/subtalar_l/subtalar_angle_l/speed	/forceset/tau_hip_flexion_l	/forceset/tau_hip_adduction_l	/forceset/tau_hip_rotation_l	/forceset/tau_knee_flexion_l	/forceset/tau_ankle_angle_l	/forceset/tau_subtalar_angle_l	/forceset/tau_lumbar_extension	lambda_cid13_p0	lambda_cid13_p1	lambda_cid13_p2	lambda_cid13_p3	lambda_cid13_p4	lambda_cid13_p5	lambda_cid14_p0	/jointset/ground_pelvis/pelvis_tilt/accel	/jointset/ground_pelvis/pelvis_tx/accel	/jointset/ground_pelvis/pelvis_ty/accel	/jointset/hip_l/hip_flexion_l/accel	/jointset/hip_l/hip_adduction_l/accel	/jointset/hip_l/hip_rotation_l/accel	/jointset/back/lumbar_extension/accel	/jointset/patellofemoral_l/patellar_flexion_l/accel	/jointset/knee_l/knee_flexion_l/accel	/jointset/knee_l/knee_adduction_l/accel	/jointset/knee_l/knee_rotation_l/accel	/jointset/ankle_l/ankle_angle_l/accel	/jointset/subtalar_l/subtalar_angle_l/accel	gamma_cid13_p0	gamma_cid13_p1	gamma_cid13_p2	gamma_cid13_p3	gamma_cid13_p4	gamma_cid13_p5	gamma_cid14_p0
0	-0.04612627369248015	0.07183682279533708	0.8962211495043785	0.1955292361009247	-0.3190730251198838	-0.5402881846539078	-0.137903700187828	0.07015350928391247	0.07015350928391206	-0.1745329251994329	-0.1719302306616549	-0.06701017130107029	0.007609890784355176	0	0	0	0	0	0	0	0	0	0	0	0	0	0.09106246664401262	-0.1331752092444929	-0.04368296972792182	-0.2683687681680276	0.2741395200227471	-0.01064717327340728	-0.02929258055231764	52.52866107150925	-9.025082766734284	6.18791087785302	-43.50071377868137	-524.8530788256132	-91.10331781667905	-41.49193607612539	-1.109086989114836	0.004015167790527565	-0.5074625098724554	5.336138442975483	-2.045057165174978	2.936966624080305	-2.141430315641979	8.191045051078556	8.191045051077872	0.3529492716576216	-0.1535123977777892	3.926566602441662	-0.09244191843157015	-4.59217814725673e-08	7.778591887575429e-08	1.026129791559419e-07	2.28770214663044e-08	-1.745685404908606e-08	-5.152867400234093e-08	-1.029409955011551e-08
0.01	-0.0461765554053532	0.07183709542909016	0.8961966349400743	0.1957846162426984	-0.319173452065101	-0.5401401716618752	-0.1380136297481816	0.07055189970340009	0.07055189970341152	-0.1745173225694688	-0.1719327072478585	-0.06681873717140338	0.007604548685700716	-0.009988433507820582	3.987378700247074e-05	-0.004886372198482712	0.05085461908752182	-0.01998540557701296	0.02948309348911114	-0.02180340758569838	0.07932891921869564	0.07932891921869475	0.003122184205450737	-0.0004874675393498324	0.0381053313058012	-0.001059141805011069	0.08697367220305845	-0.1339112107717523	-0.04258282857148302	-0.2610749157459151	0.2613902667477844	-0.004566252452270873	-0.02608999243957817	48.62511635247909	-10.93158732966148	6.433653845612926	-41.16864628093849	-525.5815358063642	-95.27719722889702	-41.49922257886517	-0.9335451318749408	0.00178011510034018	-0.4767469668564007	4.926901745642258	-1.960307969827819	2.936043230863915	-2.172420307372379	7.751442714073817	7.751442714074098	0.2919770706543053	0.004824313881136676	3.725288822052936	-0.1112821690729768	-7.712732692096115e-08	1.063379791355703e-07	1.459878021693223e-07	4.854848643755458e-08	-1.303558774020426e-07	-8.373804736171605e-08	-1.396776825871156e-08
0.02	-0.04632468617335381	0.07183732812690237	0.8961237521753813	0.1965418981961479	-0.3194707382092611	-0.5397009152310415	-0.1383361182498586	0.07173310478644931	0.07173310478644929	-0.1744704682539506	-0.1719398208602556	-0.06625169524319775	0.007588888797488776	-0.01956981102601977	-7.987188169289917e-06	-0.009673640077738004	0.1003803623351148	-0.03937183978855804	0.05824868775972053	-0.04251178826494668	0.1565629327097426	0.1565629327097439	0.00624933143751963	-0.0009274052429112355	0.07512155970774684	-0.00206355791150691	0.08288487776208237	-0.1346472122990257	-0.0414826874151589	-0.2537810633237975	0.2486410134728126	0.001514668368846765	-0.02288740432684193	44.77338768579112	-12.84785482123699	6.681743618573495	-39.05899349474686	-525.6135531064339	-99.30450228544881	-41.52071932999968	-1.027675791190595	-0.0135317846442892	-0.4876416460269726	5.070363274989711	-1.92526289208141	2.793466780379958	-1.922424934351992	7.772063905548812	7.772063905548752	0.3539418769812436	-0.1440064306200983	3.708746021670581	-0.08149677872851215	-1.08332872369355e-07	1.348900393953864e-07	1.893626251827027e-07	7.421995140880476e-08	-2.432549007549991e-07	-1.159474207210912e-07	-1.764143696730762e-08
0.03	-0.04656691375137731	0.07183672227724926	0.8960033434532041	0.1977882690641002	-0.319958863171376	-0.5389778194141396	-0.1388600850625039	0.07367648694018548	0.07367648694017902	-0.1743923555413005	-0.1719514546394814	-0.06531973611109669	0.007563590154983191	-0.02881463219173882	-0.0001190215162224174	-0.01440203784948298	0.1486714466758517	-0.05814635694859566	0.08624952794432367	-0.06211195754059851	0.2317566948395255	0.2317566948395275	0.009361607467270237	-0.001391957156748289	0.1110940021963552	-0.00297786700022613	0.07911511011337889	-0.1278481511819029	-0.04055534508797569	-0.2477879266169829	0.2411304581886296	0.0001776358606536884	-0.0199217160369748	42.29492560911373	-11.98413875805088	6.716427585350622	-37.11346907104371	-525.9608925694066	-97.01578239130197	-41.55561288281272	-0.8637379136921014	-0.01075012516438553	-0.4645779736596025	4.675108450692191	-1.837565183607436	2.785228252614644	-1.95337041572342	7.339515430275923	7.339515430276045	0.2881768321644289	0.003450024142781498	3.515045320070829	-0.09369413636429388	-1.345438694879379e-07	1.458134605598779e-07	2.31164768338381e-07	9.341774940317044e-08	-3.359291834388491e-07	-1.495154436814798e-07	-2.253579638866234e-08
0.04	-0.04689976006794136	0.07183483391065999	0.8958358229271275	0.1995108762628771	-0.3206315371162204	-0.5379783480723689	-0.1395749650662152	0.07636110332792675	0.07636110332792662	-0.1742834587951254	-0.1719675080186761	-0.06403334216258653	0.007529689189106333	-0.03769355873464734	-0.0002644905754038567	-0.01909600085765245	0.19562762849965	-0.07628163633433366	0.1135237927334932	-0.08069442647832113	0.3048097795126253	0.3048097795126279	0.01240613814471852	-0.001811325234252184	0.1460085229895593	-0.003784022585772376	0.07534534246467534	-0.1210490900647823	-0.03962800276071314	-0.2417947899101821	0.233619902904444	-0.001159396647543952	-0.01695602774710446	39.86506869647212	-11.12695687109187	6.749897172112281	-35.37665438317566	-525.6608223477425	-94.58631739933193	-41.60289370002057	-0.9544968666285275	-0.02041873086992519	-0.480754693311874	4.80338277160197	-1.797415337221492	2.648151701293233	-1.718884866766175	7.343928414212197	7.343928414212139	0.3403928065207712	-0.1349696633534618	3.497161682589768	-0.05986607809390576	-1.606518862285865e-07	1.563734046296204e-07	2.729344851052408e-07	1.124820697279096e-07	-4.281864611604494e-07	-1.831114800357037e-07	-2.74553246906925e-08
0.05	-0.04731987400045166	0.07183133845524192	0.8956213982466573	0.2016969964569868	-0.3214823987779626	-0.5367099346309619	-0.1404703431310645	0.07976606152488798	0.07976606152489386	-0.1741444725921233	-0.1719879069805345	-0.06240286546271401	0.007488349013857902	-0.04626896162731851	-0.0004372360084966536	-0.02379142955702928	0.241378730144069	-0.09377758332573106	0.1400430163948136	-0.09821890788389698	0.3758264238718246	0.3758264238718221	0.01537645024245392	-0.002258691374510249	0.179914922251529	-0.004457467499197405	0.07158033165969731	-0.1169171347150926	-0.03868058737702569	-0.236404813901918	0.2250578813905498	-6.752187968326265e-05	-0.01399685092311049	37.16526899860202	-11.20658689710903	6.851851421191484	-33.58501938416315	-525.6882584174994	-94.3586224570309	-41.66130047149839	-0.8000376735866597	-0.01607512403812599	-0.4643974891568797	4.428298768779825	-1.708766491673841	2.636391854751086	-1.744887986371433	6.927222576341487	6.927222576340735	0.2732138855069619	0.001878625693652391	3.311582020741375	-0.06715594297181067	-1.798923072005922e-07	1.586469671186372e-07	3.060849149898178e-07	1.258930859769169e-07	-4.965491162396823e-07	-2.104813041386712e-07	-3.168679514914393e-08
0.06	-0.04782393709648647	0.07182604101059116	0.8953599271730123	0.204334092649124	-0.322504836331934	-0.5351798121217007	-0.1415360976517527	0.08387052419136072	0.08387052419136083	-0.1739762105733125	-0.1720124798607746	-0.06043848417567364	0.007441059940474247	-0.05448339144000748	-0.0006248884219430401	-0.0285052794926318	0.2858228281052066	-0.110596814780127	0.1658656063041211	-0.1147697176462034	0.4447106734137327	0.444710673413725	0.01826130130447002	-0.002646108912542933	0.2127894404231317	-0.004973802212823103	0.06781532085469698	-0.1127851793654081	-0.03773317199339463	-0.2310148378936543	0.216495859876651	0.001024352888169869	-0.01103767409912891	34.50997061511084	-11.29279388171128	6.953467316795403	-31.98788191096206	-525.1230664256442	-94.00450683394548	-41.7294260666503	-0.8823022506321238	-0.02340012694061987	-0.4844389405570146	4.541982034945681	-1.662072229821204	2.508824950890638	-1.524150538112305	6.917449450753963	6.917449450753905	0.3233005993769053	-0.1229799429083813	3.290785464516403	-0.02844403813402947	-1.988435662454971e-07	1.605716293305708e-07	3.388724275319828e-07	1.390660683701038e-07	-5.639056819444996e-07	-2.375889719363225e-07	-3.588929475102362e-08
